<mxfile host="Electron" modified="2021-11-28T19:58:05.810Z" agent="5.0 (Windows NT 10.0; Win64; x64) AppleWebKit/537.36 (KHTML, like Gecko) draw.io/13.9.9 Chrome/85.0.4183.121 Electron/10.1.5 Safari/537.36" etag="fdiq8tAwKdzi1ZjYjKGT" compressed="false" version="13.9.9" type="device">
  <diagram id="_iYaE6eVzSGalfLuZerq" name="Page-1">
    <mxGraphModel dx="1329" dy="862" grid="1" gridSize="10" guides="1" tooltips="1" connect="1" arrows="1" fold="1" page="1" pageScale="1" pageWidth="850" pageHeight="1100" math="0" shadow="0">
      <root>
        <mxCell id="0" />
        <mxCell id="1" parent="0" />
        <mxCell id="rmwJaj_8x3mdiqrXTLy4-1" value="Libro" style="swimlane;fontStyle=0;childLayout=stackLayout;horizontal=1;startSize=26;fillColor=none;horizontalStack=0;resizeParent=1;resizeParentMax=0;resizeLast=0;collapsible=1;marginBottom=0;" parent="1" vertex="1">
          <mxGeometry x="355" y="440" width="140" height="182" as="geometry" />
        </mxCell>
        <mxCell id="rmwJaj_8x3mdiqrXTLy4-2" value="- id: Long" style="text;strokeColor=none;fillColor=none;align=left;verticalAlign=top;spacingLeft=4;spacingRight=4;overflow=hidden;rotatable=0;points=[[0,0.5],[1,0.5]];portConstraint=eastwest;" parent="rmwJaj_8x3mdiqrXTLy4-1" vertex="1">
          <mxGeometry y="26" width="140" height="26" as="geometry" />
        </mxCell>
        <mxCell id="rmwJaj_8x3mdiqrXTLy4-3" value="- titulo: String" style="text;strokeColor=none;fillColor=none;align=left;verticalAlign=top;spacingLeft=4;spacingRight=4;overflow=hidden;rotatable=0;points=[[0,0.5],[1,0.5]];portConstraint=eastwest;" parent="rmwJaj_8x3mdiqrXTLy4-1" vertex="1">
          <mxGeometry y="52" width="140" height="26" as="geometry" />
        </mxCell>
        <mxCell id="rmwJaj_8x3mdiqrXTLy4-4" value="- fecha: int" style="text;strokeColor=none;fillColor=none;align=left;verticalAlign=top;spacingLeft=4;spacingRight=4;overflow=hidden;rotatable=0;points=[[0,0.5],[1,0.5]];portConstraint=eastwest;" parent="rmwJaj_8x3mdiqrXTLy4-1" vertex="1">
          <mxGeometry y="78" width="140" height="26" as="geometry" />
        </mxCell>
        <mxCell id="SNhDXw_G9_cyfGaKChL8-4" value="- genero: String" style="text;strokeColor=none;fillColor=none;align=left;verticalAlign=top;spacingLeft=4;spacingRight=4;overflow=hidden;rotatable=0;points=[[0,0.5],[1,0.5]];portConstraint=eastwest;" vertex="1" parent="rmwJaj_8x3mdiqrXTLy4-1">
          <mxGeometry y="104" width="140" height="26" as="geometry" />
        </mxCell>
        <mxCell id="SNhDXw_G9_cyfGaKChL8-5" value="- paginas: int" style="text;strokeColor=none;fillColor=none;align=left;verticalAlign=top;spacingLeft=4;spacingRight=4;overflow=hidden;rotatable=0;points=[[0,0.5],[1,0.5]];portConstraint=eastwest;" vertex="1" parent="rmwJaj_8x3mdiqrXTLy4-1">
          <mxGeometry y="130" width="140" height="26" as="geometry" />
        </mxCell>
        <mxCell id="SNhDXw_G9_cyfGaKChL8-6" value="- autor: String" style="text;strokeColor=none;fillColor=none;align=left;verticalAlign=top;spacingLeft=4;spacingRight=4;overflow=hidden;rotatable=0;points=[[0,0.5],[1,0.5]];portConstraint=eastwest;" vertex="1" parent="rmwJaj_8x3mdiqrXTLy4-1">
          <mxGeometry y="156" width="140" height="26" as="geometry" />
        </mxCell>
        <mxCell id="rmwJaj_8x3mdiqrXTLy4-5" value="Domicilio" style="swimlane;fontStyle=0;childLayout=stackLayout;horizontal=1;startSize=26;fillColor=none;horizontalStack=0;resizeParent=1;resizeParentMax=0;resizeLast=0;collapsible=1;marginBottom=0;" parent="1" vertex="1">
          <mxGeometry x="80" y="253" width="140" height="102" as="geometry" />
        </mxCell>
        <mxCell id="rmwJaj_8x3mdiqrXTLy4-6" value="- id: Long" style="text;strokeColor=none;fillColor=none;align=left;verticalAlign=top;spacingLeft=4;spacingRight=4;overflow=hidden;rotatable=0;points=[[0,0.5],[1,0.5]];portConstraint=eastwest;" parent="rmwJaj_8x3mdiqrXTLy4-5" vertex="1">
          <mxGeometry y="26" width="140" height="24" as="geometry" />
        </mxCell>
        <mxCell id="rmwJaj_8x3mdiqrXTLy4-7" value="- calle: String" style="text;strokeColor=none;fillColor=none;align=left;verticalAlign=top;spacingLeft=4;spacingRight=4;overflow=hidden;rotatable=0;points=[[0,0.5],[1,0.5]];portConstraint=eastwest;" parent="rmwJaj_8x3mdiqrXTLy4-5" vertex="1">
          <mxGeometry y="50" width="140" height="26" as="geometry" />
        </mxCell>
        <mxCell id="rmwJaj_8x3mdiqrXTLy4-8" value="- numero: int" style="text;strokeColor=none;fillColor=none;align=left;verticalAlign=top;spacingLeft=4;spacingRight=4;overflow=hidden;rotatable=0;points=[[0,0.5],[1,0.5]];portConstraint=eastwest;" parent="rmwJaj_8x3mdiqrXTLy4-5" vertex="1">
          <mxGeometry y="76" width="140" height="26" as="geometry" />
        </mxCell>
        <mxCell id="rmwJaj_8x3mdiqrXTLy4-9" value="Persona" style="swimlane;fontStyle=0;childLayout=stackLayout;horizontal=1;startSize=26;fillColor=none;horizontalStack=0;resizeParent=1;resizeParentMax=0;resizeLast=0;collapsible=1;marginBottom=0;" parent="1" vertex="1">
          <mxGeometry x="330" y="240" width="190" height="128" as="geometry" />
        </mxCell>
        <mxCell id="rmwJaj_8x3mdiqrXTLy4-10" value="- id: Long" style="text;strokeColor=none;fillColor=none;align=left;verticalAlign=top;spacingLeft=4;spacingRight=4;overflow=hidden;rotatable=0;points=[[0,0.5],[1,0.5]];portConstraint=eastwest;" parent="rmwJaj_8x3mdiqrXTLy4-9" vertex="1">
          <mxGeometry y="26" width="190" height="24" as="geometry" />
        </mxCell>
        <mxCell id="rmwJaj_8x3mdiqrXTLy4-11" value="- nombre: String" style="text;strokeColor=none;fillColor=none;align=left;verticalAlign=top;spacingLeft=4;spacingRight=4;overflow=hidden;rotatable=0;points=[[0,0.5],[1,0.5]];portConstraint=eastwest;strokeWidth=1;" parent="rmwJaj_8x3mdiqrXTLy4-9" vertex="1">
          <mxGeometry y="50" width="190" height="26" as="geometry" />
        </mxCell>
        <mxCell id="rmwJaj_8x3mdiqrXTLy4-12" value="- apellido: String" style="text;strokeColor=none;fillColor=none;align=left;verticalAlign=top;spacingLeft=4;spacingRight=4;overflow=hidden;rotatable=0;points=[[0,0.5],[1,0.5]];portConstraint=eastwest;" parent="rmwJaj_8x3mdiqrXTLy4-9" vertex="1">
          <mxGeometry y="76" width="190" height="26" as="geometry" />
        </mxCell>
        <mxCell id="n-yF_LW9B8SEdR8fuELS-1" value="- dni: int" style="text;strokeColor=none;fillColor=none;align=left;verticalAlign=top;spacingLeft=4;spacingRight=4;overflow=hidden;rotatable=0;points=[[0,0.5],[1,0.5]];portConstraint=eastwest;" parent="rmwJaj_8x3mdiqrXTLy4-9" vertex="1">
          <mxGeometry y="102" width="190" height="26" as="geometry" />
        </mxCell>
        <mxCell id="rmwJaj_8x3mdiqrXTLy4-13" value="Localidad" style="swimlane;fontStyle=0;childLayout=stackLayout;horizontal=1;startSize=26;fillColor=none;horizontalStack=0;resizeParent=1;resizeParentMax=0;resizeLast=0;collapsible=1;marginBottom=0;" parent="1" vertex="1">
          <mxGeometry x="80" y="440" width="140" height="78" as="geometry" />
        </mxCell>
        <mxCell id="rmwJaj_8x3mdiqrXTLy4-14" value="- id: Long" style="text;strokeColor=none;fillColor=none;align=left;verticalAlign=top;spacingLeft=4;spacingRight=4;overflow=hidden;rotatable=0;points=[[0,0.5],[1,0.5]];portConstraint=eastwest;" parent="rmwJaj_8x3mdiqrXTLy4-13" vertex="1">
          <mxGeometry y="26" width="140" height="26" as="geometry" />
        </mxCell>
        <mxCell id="rmwJaj_8x3mdiqrXTLy4-15" value="- denominacion: String" style="text;strokeColor=none;fillColor=none;align=left;verticalAlign=top;spacingLeft=4;spacingRight=4;overflow=hidden;rotatable=0;points=[[0,0.5],[1,0.5]];portConstraint=eastwest;" parent="rmwJaj_8x3mdiqrXTLy4-13" vertex="1">
          <mxGeometry y="52" width="140" height="26" as="geometry" />
        </mxCell>
        <mxCell id="rmwJaj_8x3mdiqrXTLy4-17" value="Autor" style="swimlane;fontStyle=0;childLayout=stackLayout;horizontal=1;startSize=26;fillColor=none;horizontalStack=0;resizeParent=1;resizeParentMax=0;resizeLast=0;collapsible=1;marginBottom=0;" parent="1" vertex="1">
          <mxGeometry x="640" y="466" width="140" height="130" as="geometry" />
        </mxCell>
        <mxCell id="rmwJaj_8x3mdiqrXTLy4-18" value="- id: Long" style="text;strokeColor=none;fillColor=none;align=left;verticalAlign=top;spacingLeft=4;spacingRight=4;overflow=hidden;rotatable=0;points=[[0,0.5],[1,0.5]];portConstraint=eastwest;" parent="rmwJaj_8x3mdiqrXTLy4-17" vertex="1">
          <mxGeometry y="26" width="140" height="26" as="geometry" />
        </mxCell>
        <mxCell id="rmwJaj_8x3mdiqrXTLy4-19" value="- nombre: String" style="text;strokeColor=none;fillColor=none;align=left;verticalAlign=top;spacingLeft=4;spacingRight=4;overflow=hidden;rotatable=0;points=[[0,0.5],[1,0.5]];portConstraint=eastwest;" parent="rmwJaj_8x3mdiqrXTLy4-17" vertex="1">
          <mxGeometry y="52" width="140" height="26" as="geometry" />
        </mxCell>
        <mxCell id="rmwJaj_8x3mdiqrXTLy4-20" value="- apellido: String" style="text;strokeColor=none;fillColor=none;align=left;verticalAlign=top;spacingLeft=4;spacingRight=4;overflow=hidden;rotatable=0;points=[[0,0.5],[1,0.5]];portConstraint=eastwest;" parent="rmwJaj_8x3mdiqrXTLy4-17" vertex="1">
          <mxGeometry y="78" width="140" height="26" as="geometry" />
        </mxCell>
        <mxCell id="SNhDXw_G9_cyfGaKChL8-8" value="- biografia: String" style="text;strokeColor=none;fillColor=none;align=left;verticalAlign=top;spacingLeft=4;spacingRight=4;overflow=hidden;rotatable=0;points=[[0,0.5],[1,0.5]];portConstraint=eastwest;" vertex="1" parent="rmwJaj_8x3mdiqrXTLy4-17">
          <mxGeometry y="104" width="140" height="26" as="geometry" />
        </mxCell>
        <mxCell id="SNhDXw_G9_cyfGaKChL8-1" value="" style="endArrow=classic;html=1;" edge="1" parent="1" source="rmwJaj_8x3mdiqrXTLy4-9" target="rmwJaj_8x3mdiqrXTLy4-5">
          <mxGeometry width="50" height="50" relative="1" as="geometry">
            <mxPoint x="326" y="258" as="sourcePoint" />
            <mxPoint x="220" y="258" as="targetPoint" />
          </mxGeometry>
        </mxCell>
        <mxCell id="SNhDXw_G9_cyfGaKChL8-2" value="" style="endArrow=classic;html=1;exitX=0.5;exitY=0;exitDx=0;exitDy=0;" edge="1" parent="1" source="rmwJaj_8x3mdiqrXTLy4-1" target="rmwJaj_8x3mdiqrXTLy4-9">
          <mxGeometry width="50" height="50" relative="1" as="geometry">
            <mxPoint x="580" y="410" as="sourcePoint" />
            <mxPoint x="380" y="440" as="targetPoint" />
          </mxGeometry>
        </mxCell>
        <mxCell id="SNhDXw_G9_cyfGaKChL8-3" value="" style="endArrow=classic;html=1;entryX=0.5;entryY=0;entryDx=0;entryDy=0;" edge="1" parent="1" source="rmwJaj_8x3mdiqrXTLy4-5" target="rmwJaj_8x3mdiqrXTLy4-13">
          <mxGeometry width="50" height="50" relative="1" as="geometry">
            <mxPoint x="110" y="420" as="sourcePoint" />
            <mxPoint x="160" y="370" as="targetPoint" />
          </mxGeometry>
        </mxCell>
        <mxCell id="SNhDXw_G9_cyfGaKChL8-9" value="" style="endArrow=classic;html=1;" edge="1" parent="1" source="rmwJaj_8x3mdiqrXTLy4-1" target="rmwJaj_8x3mdiqrXTLy4-17">
          <mxGeometry width="50" height="50" relative="1" as="geometry">
            <mxPoint x="640" y="570" as="sourcePoint" />
            <mxPoint x="690" y="520" as="targetPoint" />
          </mxGeometry>
        </mxCell>
      </root>
    </mxGraphModel>
  </diagram>
</mxfile>
